<?xml version="1.0" encoding="UTF-8"?>
<!-- Generator: Adobe Illustrator 27.1.1, SVG Export Plug-In . SVG Version: 6.00 Build 0)  -->
<svg xmlns="http://www.w3.org/2000/svg" xmlns:xlink="http://www.w3.org/1999/xlink" version="1.1" id="Layer_1" x="0px" y="0px" viewBox="0 0 350 140.9" style="enable-background:new 0 0 350 140.9;" xml:space="preserve">
<style type="text/css">
	.st0{fill:#FFFFFF;}
	.st1{fill:#E2C675;}
	.st2{fill:#2B2B51;}
</style>
<g>
	<g>
		<path class="st0" d="M164.9,42v-0.3c0.1,0,0.2,0,0.5-0.1c0.3,0,0.5-0.1,0.8-0.2c0.3-0.1,0.5-0.3,0.8-0.5c0.2-0.2,0.3-0.5,0.3-0.8    c0-0.2-0.1-0.5-0.2-1c-0.1-0.5-0.3-1-0.5-1.7s-0.5-1.4-0.8-2.3c-0.3-0.8-0.6-1.7-1-2.6h-9.1c-0.3,0.9-0.7,1.7-1,2.5    s-0.6,1.6-1,2.4c-0.5,1.2-0.7,2.1-0.7,2.6c0,0.3,0.1,0.5,0.3,0.7s0.4,0.4,0.7,0.5s0.6,0.2,0.9,0.3c0.3,0.1,0.6,0.1,0.9,0.2V42    h-7.3v-0.4c0.6-0.1,1.1-0.2,1.5-0.5s0.7-0.4,0.7-0.5c0.2-0.2,0.4-0.5,0.8-1.1c0.4-0.6,0.8-1.5,1.3-2.6s1-2.3,1.6-3.7    c0.6-1.4,1.2-2.8,1.8-4.2c0.6-1.5,1.3-2.9,1.9-4.4c0.6-1.5,1.2-2.9,1.8-4.1l-0.3-0.8c0.4-0.2,0.8-0.4,1.1-0.7    c0.3-0.3,0.6-0.5,0.9-0.8c0.3-0.3,0.5-0.5,0.6-0.8c0.2-0.3,0.3-0.5,0.4-0.6h0.3c0.7,1.9,1.4,3.7,2,5.4c0.6,1.7,1.3,3.4,1.8,4.9    c0.6,1.6,1.2,3.1,1.7,4.6c0.6,1.5,1.1,2.9,1.7,4.4c0.3,0.7,0.5,1.3,0.7,1.8s0.5,1,0.7,1.6c0,0.1,0.1,0.3,0.3,0.5s0.4,0.5,0.6,0.7    c0.3,0.2,0.6,0.5,1,0.6c0.4,0.2,0.8,0.3,1.4,0.3V42H164.9z M160.4,21.1c-0.1,0.3-0.3,0.8-0.6,1.4s-0.6,1.4-1,2.3s-0.8,2-1.3,3.1    c-0.5,1.2-1,2.4-1.5,3.8h8.6c-0.4-1-0.8-2.1-1.2-3.1s-0.8-2-1.2-3s-0.7-1.8-1-2.6C160.8,22.3,160.6,21.6,160.4,21.1z"></path>
		<path class="st0" d="M199.4,42v-0.4c1,0,1.8-0.3,2.5-0.6c0.7-0.4,1.1-0.8,1.3-1.3c0.1-0.3,0.2-0.7,0.3-1.1    c0.1-0.4,0.1-0.9,0.1-1.4c0-1.5,0.1-3,0.1-4.3c0-1.4,0-2.8,0-4.3v-9.7c-0.8,1.7-1.4,3.3-2.1,4.7c-0.6,1.4-1.3,2.8-1.9,4.2    c-0.6,1.4-1.2,2.7-1.9,4.1c-0.6,1.4-1.3,3-2.1,4.7c-0.1,0.2-0.3,0.6-0.5,1.1s-0.4,1-0.6,1.5c-0.2,0.5-0.4,1-0.6,1.4    c-0.2,0.4-0.3,0.7-0.3,0.8h-0.2c-0.7-1.7-1.5-3.4-2.2-5.1c-0.7-1.7-1.4-3.3-2.1-4.8c-0.7-1.5-1.3-3-1.9-4.3    c-0.6-1.4-1.1-2.6-1.6-3.6c-0.5-1.1-0.9-1.9-1.2-2.6s-0.5-1.2-0.6-1.4c0,1.5,0,2.8,0,4s0,2.3,0,3.4s0,2.3,0,3.6c0,1.3,0,2.7,0,4.4    c0,1.1,0,2,0.1,2.8s0.2,1.5,0.5,2s0.7,1,1.3,1.3s1.3,0.5,2.3,0.7V42h-9v-0.3c0.8-0.2,1.5-0.4,2-0.7s0.9-0.7,1.2-1.3s0.5-1.2,0.7-2    c0.1-0.8,0.2-1.8,0.2-3c0-1,0.1-2.1,0.1-3.5c0-1.3,0-2.8,0-4.3c0-0.7,0-1.2,0-1.7s0-0.9,0-1.3s0-0.9,0-1.3c0-0.5,0-1,0-1.7    c0-0.6-0.2-1.2-0.4-1.6c-0.3-0.4-0.6-0.7-0.9-0.9c-0.3-0.2-0.7-0.4-1.1-0.5c-0.4-0.1-0.7-0.2-1-0.2v-0.3h7.3l8.2,18.7    c1-2.2,2-4.3,3-6.5s1.8-4.1,2.6-5.8c0.8-1.7,1.4-3.2,1.9-4.3c0.5-1.2,0.8-1.8,0.8-2h7.3v0.3c-0.9,0-1.7,0.2-2.1,0.6    c-0.5,0.4-0.8,0.8-1,1.3c-0.1,0.4-0.2,1-0.3,1.8c0,0.8-0.1,1.6-0.1,2.4c0,1.1,0,2.2,0,3.2s0,2.1,0,3.1c0,1.2,0,2.5,0,3.7    c0,1.2,0,2.5,0,3.9c0,0.4,0,0.9,0.1,1.3c0.1,0.4,0.2,0.8,0.3,1c0,0,0.1,0.2,0.3,0.3c0.1,0.2,0.4,0.4,0.6,0.5    c0.3,0.2,0.6,0.4,1,0.5s0.9,0.2,1.4,0.3V42H199.4z"></path>
		<path class="st0" d="M242.5,34.5c-0.7,1.6-1.6,2.9-2.8,4.1c-1.2,1.1-2.6,2-4.1,2.6c-1.6,0.6-3.2,0.9-5,0.9c-1.7,0-3.4-0.3-5-0.9    c-1.6-0.6-2.9-1.5-4.1-2.6c-1.2-1.1-2.1-2.4-2.8-4c-0.7-1.5-1-3.2-1-5.1c0-2,0.4-3.7,1.1-5.3c0.7-1.6,1.7-2.9,2.9-4    s2.6-1.9,4.2-2.5c1.6-0.6,3.3-0.9,5.1-0.9c1.9,0,3.7,0.3,5.2,1s2.9,1.6,3.9,2.8c1.1,1.2,1.9,2.5,2.5,4s0.9,3.1,0.9,4.7    C243.6,31.2,243.2,32.9,242.5,34.5z M238.8,25.2c-0.4-1.4-0.9-2.7-1.6-3.9c-0.7-1.2-1.6-2.1-2.7-2.8c-1.1-0.7-2.3-1.1-3.8-1.1    s-2.8,0.4-3.9,1.1c-1.1,0.7-2,1.7-2.7,2.8c-0.7,1.1-1.2,2.4-1.5,3.9s-0.5,2.9-0.5,4.4c0,1.6,0.2,3.1,0.5,4.5    c0.4,1.4,0.9,2.7,1.6,3.8c0.7,1.1,1.6,2,2.7,2.6c1.1,0.7,2.4,1,3.8,1s2.7-0.4,3.8-1.1c1.1-0.7,2-1.7,2.7-2.8    c0.7-1.2,1.2-2.5,1.6-3.9s0.5-2.9,0.5-4.3C239.3,28,239.1,26.6,238.8,25.2z"></path>
		<path class="st0" d="M267.6,38.1c-0.4,0.9-1.1,1.6-1.9,2.2c-0.8,0.6-1.7,1.1-2.8,1.4c-1.1,0.3-2.3,0.4-3.6,0.4    c-1.1,0-2.1-0.1-2.9-0.2c-0.8-0.1-1.5-0.3-2-0.5s-0.9-0.4-1.2-0.5c-0.3-0.2-0.4-0.2-0.5-0.2s-0.2,0.1-0.4,0.4    c-0.2,0.3-0.4,0.5-0.6,0.8h-0.3l-0.1-6.8h0.3c0.2,0.6,0.5,1.2,0.8,1.8s0.7,1.1,1,1.7c0.4,0.5,0.8,1,1.2,1.4s0.8,0.7,1.2,0.9    s0.9,0.4,1.5,0.6c0.6,0.2,1.3,0.3,1.9,0.3c1.7,0,3.1-0.5,4.1-1.4c1.1-0.9,1.6-2.2,1.6-3.8c0-0.6-0.1-1.2-0.3-1.7    c-0.2-0.5-0.5-0.9-0.8-1.3c-0.4-0.4-0.8-0.7-1.3-0.9c-0.5-0.3-1-0.5-1.5-0.7c-0.6-0.2-1-0.4-1.4-0.5s-0.8-0.3-1.2-0.4    c-0.4-0.1-0.7-0.3-1.1-0.4s-0.8-0.3-1.4-0.5s-1.2-0.5-1.7-0.9s-1-0.9-1.4-1.4s-0.7-1.1-1-1.8c-0.3-0.7-0.4-1.3-0.4-2.1    c0-1.2,0.2-2.3,0.7-3.2c0.5-0.9,1.1-1.6,1.8-2.2c0.8-0.6,1.6-1,2.6-1.3c1-0.3,2-0.4,3.1-0.4c1,0,1.9,0.1,2.6,0.3    c0.7,0.2,1.3,0.4,1.8,0.6s0.8,0.4,1.1,0.6c0.2,0.2,0.4,0.3,0.4,0.3c0.1,0,0.2-0.1,0.4-0.4c0.2-0.3,0.4-0.6,0.6-0.8h0.4v6.4h-0.4    c-0.3-0.8-0.6-1.5-1.1-2.3c-0.4-0.7-0.9-1.4-1.5-2s-1.2-1.1-2-1.4c-0.7-0.4-1.5-0.6-2.4-0.6c-0.7,0-1.4,0.1-2,0.3    c-0.6,0.2-1.2,0.5-1.7,0.9c-0.5,0.4-0.8,0.9-1.1,1.5s-0.4,1.3-0.4,2.1c0,1.2,0.4,2.2,1.1,2.9c0.7,0.7,1.7,1.3,2.8,1.8    c0.5,0.2,0.9,0.3,1.3,0.5s0.8,0.3,1.2,0.4c0.4,0.1,0.8,0.3,1.2,0.4s0.8,0.3,1.3,0.4c1.6,0.6,2.8,1.4,3.6,2.5    c0.9,1.1,1.3,2.4,1.3,4.1C268.2,36.3,268,37.3,267.6,38.1z"></path>
		<path class="st0" d="M171,67.9c-0.3,0.7-0.6,1.3-1.1,1.8c-0.4,0.5-1,1-1.6,1.4s-1.2,0.7-1.8,0.9c-0.6,0.2-1.3,0.4-2.1,0.5    c-0.7,0.1-1.5,0.2-2.2,0.3c-0.7,0.1-1.5,0.1-2.2,0.1s-1.3,0-1.9,0c0,0.7,0,1.4,0,1.9s0,1,0,1.3c0,0.4,0,0.8,0,1.1    c0,0.3,0,0.7,0,1.1c0,0.7,0,1.4,0.1,1.9c0,0.5,0.1,1,0.4,1.3c0.2,0.3,0.5,0.6,1.1,0.9c0.5,0.3,1.3,0.5,2.2,0.5v0.3h-11v-0.3    c0.6-0.1,1.1-0.2,1.7-0.4c0.5-0.2,0.9-0.5,1.2-0.8c0.1-0.1,0.2-0.3,0.3-0.6c0.1-0.3,0.1-0.6,0.2-0.9s0.1-0.7,0.1-1.1s0-0.8,0-1.1    c0-0.3,0-0.8,0-1.3s0-1.2,0-1.8c0-0.7,0-1.3,0-2s0-1.4,0-2V64c0-0.4,0-0.8,0-1.3c0-0.4,0-0.8-0.1-1.2c0-0.4-0.1-0.7-0.2-1    c-0.1-0.3-0.2-0.5-0.3-0.7c-0.3-0.4-0.8-0.6-1.3-0.7c-0.5-0.1-1.1-0.2-1.7-0.3v-0.3c0.1,0,0.4,0,0.8,0c0.4,0,0.9,0,1.5,0    s1.2,0,1.9,0s1.4,0,2,0c0.7,0,1.3,0,1.9,0c0.6,0,1.1,0,1.5,0c1.5,0,2.9,0.1,4,0.2c1.2,0.1,2.3,0.5,3.3,1.1s1.8,1.3,2.5,2.3    s1,2.2,1,3.6C171.5,66.5,171.3,67.2,171,67.9z M166.7,61.9c-0.7-1-1.6-1.8-2.7-2.3c-0.6-0.3-1.1-0.4-1.8-0.5    c-0.6-0.1-1.3-0.1-1.9-0.1c-0.5,0-0.9,0-1.1,0.1c-0.3,0-0.5,0.1-0.6,0.1c0,0.1-0.1,0.3-0.1,0.4c0,0.1-0.1,0.2-0.1,0.4    s0,0.4-0.1,0.7c0,0.3,0,0.7-0.1,1.2c0,0.8,0,1.8-0.1,2.9c0,1.1,0,2.3,0,3.4s0,2.1,0,2.9s0,1.3,0,1.5c0.9,0,1.8,0,2.6-0.1    s1.6-0.2,2.3-0.5c1.5-0.5,2.6-1.3,3.4-2.5c0.8-1.2,1.2-2.5,1.2-3.9C167.7,64.1,167.4,62.9,166.7,61.9z"></path>
		<path class="st0" d="M199.1,83.2h-21v-0.3c0.6-0.1,1.1-0.2,1.6-0.4c0.5-0.2,0.9-0.5,1.2-0.9c0.1-0.1,0.2-0.3,0.3-0.6    c0.1-0.3,0.1-0.6,0.2-0.9c0.1-0.3,0.1-0.7,0.1-1.1s0-0.8,0-1.1c0-0.3,0-0.8,0-1.3s0-1.2,0-1.8c0-0.7,0-1.3,0-2s0-1.4,0-2V64    c0-0.4,0-0.8,0-1.3c0-0.4,0-0.8-0.1-1.2c0-0.4-0.1-0.7-0.2-1c-0.1-0.3-0.2-0.5-0.3-0.7c-0.3-0.4-0.7-0.6-1.1-0.7    c-0.4-0.1-0.9-0.2-1.5-0.3v-0.3h19l2.3,5.7l-0.3,0.2c-1.9-2.3-3.6-3.9-5.2-4.7c-0.4-0.2-1.1-0.3-2.2-0.5c-1.1-0.1-2.3-0.2-3.8-0.2    c-0.5,0-1,0-1.5,0.1c-0.5,0-0.9,0.1-1.1,0.1c0,0.4-0.1,1.1-0.1,2.3c0,1.1-0.1,2.5-0.1,4c0,0.9,0,1.6,0,2.2s0,1.1,0,1.5    s0,0.7,0,0.9c0,0.2,0,0.3,0,0.4c0.1,0,0.3,0,0.7,0c0.3,0,0.7,0,1.2,0c0.4,0,0.9-0.1,1.3-0.1c0.4,0,0.8-0.1,1.1-0.2    c0.7-0.2,1.3-0.4,1.7-0.7c0.5-0.3,0.8-0.6,1.1-1s0.5-0.8,0.7-1.4c0.2-0.5,0.3-1.1,0.5-1.7h0.4v10.8h-0.4c-0.2-0.7-0.5-1.5-0.8-2.3    c-0.4-0.8-0.8-1.4-1.2-1.8c-0.4-0.3-0.8-0.6-1.3-0.8c-0.5-0.2-1.1-0.3-1.8-0.4c-0.3,0-0.6,0-0.9-0.1c-0.2,0-0.5,0-0.7,0    s-0.4,0-0.7,0c-0.2,0-0.5,0-0.9,0c0,0.3-0.1,0.8-0.1,1.4s0,1.3,0,1.9c0,0.3,0,0.6,0,1s0,0.8,0,1.2c0,0.4,0,0.7,0,1s0,0.6,0,0.8    c0,0.7,0.1,1.4,0.1,2.1c0.1,0.7,0.2,1.1,0.4,1.5c0.2,0.3,0.7,0.5,1.5,0.7c0.8,0.1,1.6,0.2,2.5,0.2c0.4,0,0.9,0,1.5,0    s1.2-0.1,1.9-0.2s1.4-0.3,2-0.5c0.6-0.3,1.2-0.6,1.8-1.1s1.1-1.1,1.7-1.8c0.5-0.7,1.1-1.5,1.7-2.5l0.4,0.1L199.1,83.2z"></path>
		<path class="st0" d="M225.9,83.2c-0.2-0.2-0.4-0.4-0.4-0.5c-0.1-0.1-0.2-0.2-0.3-0.4c-0.1-0.1-0.3-0.3-0.4-0.6    c-0.2-0.3-0.4-0.7-0.8-1.2c-0.4-0.6-0.8-1.2-1.2-1.7c-0.3-0.5-0.7-1-1-1.5s-0.7-1-1.1-1.5c-0.4-0.5-0.9-1.1-1.4-1.7    c-0.5-0.5-1-1-1.5-1.5s-1.1-0.7-1.7-0.9c-0.4-0.1-0.8-0.1-1-0.1s-0.5,0-0.8,0c0,1.5,0,2.8,0,3.9s0,2,0,2.8c0,0.7,0,1.4,0.1,1.9    c0,0.5,0.1,1,0.4,1.3c0.2,0.3,0.5,0.6,1.1,0.9c0.5,0.3,1.3,0.5,2.2,0.5v0.3h-11v-0.3c0.6-0.1,1.1-0.2,1.7-0.4    c0.5-0.2,0.9-0.5,1.2-0.8c0.1-0.1,0.2-0.3,0.3-0.6c0.1-0.3,0.1-0.6,0.2-0.9s0.1-0.7,0.1-1.1s0-0.8,0-1.1c0-0.3,0-0.8,0-1.3    s0-1.2,0-1.8c0-0.7,0-1.3,0-2s0-1.4,0-2V64c0-0.4,0-0.8,0-1.3c0-0.4,0-0.8-0.1-1.2c0-0.4-0.1-0.7-0.2-1c-0.1-0.3-0.2-0.5-0.3-0.7    c-0.3-0.4-0.7-0.6-1.2-0.7c-0.4-0.1-0.9-0.2-1.6-0.3v-0.3c0.2,0,0.7,0,1.4,0c0.8,0,1.7,0,2.6,0c1,0,2,0,3,0s1.8,0,2.4,0    c1.5,0,2.9,0,4.1,0.1c1.2,0.1,2.3,0.4,3.3,0.9s1.8,1.2,2.4,2.1c0.6,0.9,0.9,2,0.9,3.4c0,0.8-0.2,1.6-0.5,2.3    c-0.3,0.7-0.7,1.3-1.2,1.8s-1.1,1-1.8,1.3c-0.7,0.4-1.4,0.7-2.2,0.9v0.1c0.4,0.2,0.8,0.5,1.1,0.9c0.4,0.4,0.7,0.8,1.1,1.3    c0.6,0.9,1.2,1.8,1.9,2.8s1.3,1.9,1.9,2.7c0.8,1.2,1.7,2.1,2.5,2.6s1.7,0.9,2.8,1.1v0.3L225.9,83.2L225.9,83.2z M222.5,61.8    c-0.6-0.9-1.4-1.6-2.5-2.1c-0.6-0.3-1.1-0.4-1.7-0.6c-0.6-0.1-1.2-0.2-1.9-0.2c-0.5,0-0.9,0-1.2,0s-0.5,0-0.7,0.1    c0,0.1,0,0.3-0.1,0.4c0,0.1,0,0.2-0.1,0.4c0,0.2,0,0.4,0,0.7s0,0.7-0.1,1.2c0,0.8,0,1.7-0.1,2.7c0,1,0,2,0,2.9s0,1.8,0,2.5    s0,1.1,0,1.3c0.9,0,1.8,0,2.6-0.1s1.6-0.2,2.4-0.5c0.7-0.2,1.4-0.5,1.9-0.9s1-0.8,1.3-1.3s0.6-1,0.7-1.6c0.2-0.6,0.2-1.2,0.2-1.8    C223.3,63.7,223,62.7,222.5,61.8z"></path>
		<path class="st0" d="M256.5,83.2c-0.2-0.2-0.4-0.4-0.4-0.5c-0.1-0.1-0.2-0.2-0.3-0.4c-0.1-0.1-0.3-0.3-0.4-0.6    c-0.2-0.3-0.4-0.7-0.8-1.2c-0.4-0.6-0.8-1.2-1.2-1.7c-0.3-0.5-0.7-1-1-1.5s-0.7-1-1.1-1.5c-0.4-0.5-0.9-1.1-1.4-1.7    c-0.5-0.5-1-1-1.5-1.5s-1.1-0.7-1.7-0.9c-0.4-0.1-0.8-0.1-1-0.1s-0.5,0-0.8,0c0,1.5,0,2.8,0,3.9s0,2,0,2.8c0,0.7,0,1.4,0.1,1.9    c0,0.5,0.1,1,0.4,1.3c0.2,0.3,0.5,0.6,1.1,0.9c0.5,0.3,1.3,0.5,2.2,0.5v0.3h-11v-0.3c0.6-0.1,1.1-0.2,1.7-0.4    c0.5-0.2,0.9-0.5,1.2-0.8c0.1-0.1,0.2-0.3,0.3-0.6c0.1-0.3,0.1-0.6,0.2-0.9s0.1-0.7,0.1-1.1s0-0.8,0-1.1c0-0.3,0-0.8,0-1.3    s0-1.2,0-1.8c0-0.7,0-1.3,0-2s0-1.4,0-2V64c0-0.4,0-0.8,0-1.3c0-0.4,0-0.8-0.1-1.2c0-0.4-0.1-0.7-0.2-1c-0.1-0.3-0.2-0.5-0.3-0.7    c-0.3-0.4-0.7-0.6-1.2-0.7c-0.4-0.1-0.9-0.2-1.6-0.3v-0.3c0.2,0,0.7,0,1.4,0c0.8,0,1.7,0,2.6,0c1,0,2,0,3,0s1.8,0,2.4,0    c1.5,0,2.9,0,4.1,0.1c1.2,0.1,2.3,0.4,3.3,0.9s1.8,1.2,2.4,2.1c0.6,0.9,0.9,2,0.9,3.4c0,0.8-0.2,1.6-0.5,2.3    c-0.3,0.7-0.7,1.3-1.2,1.8s-1.1,1-1.8,1.3c-0.7,0.4-1.4,0.7-2.2,0.9v0.1c0.4,0.2,0.8,0.5,1.1,0.9c0.4,0.4,0.7,0.8,1.1,1.3    c0.6,0.9,1.2,1.8,1.9,2.8c0.7,1,1.3,1.9,1.9,2.7c0.8,1.2,1.7,2.1,2.5,2.6s1.7,0.9,2.8,1.1v0.3L256.5,83.2L256.5,83.2z M253.1,61.8    c-0.6-0.9-1.4-1.6-2.5-2.1c-0.6-0.3-1.1-0.4-1.7-0.6c-0.6-0.1-1.2-0.2-1.9-0.2c-0.5,0-0.9,0-1.2,0s-0.5,0-0.7,0.1    c0,0.1,0,0.3-0.1,0.4c0,0.1,0,0.2-0.1,0.4c0,0.2,0,0.4,0,0.7s0,0.7-0.1,1.2c0,0.8,0,1.7-0.1,2.7c0,1,0,2,0,2.9s0,1.8,0,2.5    s0,1.1,0,1.3c0.9,0,1.8,0,2.6-0.1s1.6-0.2,2.4-0.5c0.7-0.2,1.4-0.5,1.9-0.9s1-0.8,1.3-1.3s0.6-1,0.7-1.6c0.2-0.6,0.2-1.2,0.2-1.8    C254,63.7,253.7,62.7,253.1,61.8z"></path>
		<path class="st0" d="M268.4,83.2v-0.3c0.6-0.1,1.1-0.2,1.6-0.4c0.5-0.2,0.9-0.5,1.3-0.9c0.1-0.1,0.2-0.3,0.3-0.6    c0.1-0.3,0.1-0.5,0.1-0.9c0-0.3,0.1-0.7,0.1-1.1s0-0.8,0-1.1c0-0.3,0-0.8,0-1.3s0-1.2,0-1.8c0-0.7,0-1.3,0-2s0-1.4,0-2V64    c0-0.4,0-0.8,0-1.2s0-0.8-0.1-1.2c0-0.4-0.1-0.7-0.2-1s-0.2-0.5-0.3-0.7c-0.3-0.4-0.7-0.7-1.2-0.8c-0.5-0.2-1-0.3-1.6-0.4v-0.3    h10.3v0.3c-0.5,0.1-1,0.2-1.5,0.4c-0.6,0.2-1,0.5-1.3,1.1c-0.2,0.4-0.3,0.9-0.3,1.5s0,1.2-0.1,1.7c0,0.6,0,1.1,0,1.7s0,1.1,0,1.7    s0,1.2,0,1.8c0,0.6,0,1.2,0,2v7.8c0,0.7,0,1.3,0,1.9s0.1,1.1,0.3,1.3c0.3,0.4,0.7,0.7,1.3,0.9c0.6,0.2,1.1,0.3,1.6,0.4v0.3    L268.4,83.2L268.4,83.2z"></path>
		<path class="st0" d="M309.6,66.4c-0.3-1.1-0.7-2.1-1.3-3.1c-0.6-1-1.3-1.8-2.1-2.5c-0.8-0.7-1.7-1.3-2.8-1.7s-2.1-0.6-3.2-0.6    c-1.6,0-3,0.4-4.2,1.1c-1.2,0.7-2.3,1.7-3.1,2.8c-0.8,1.2-1.5,2.5-1.9,4s-0.7,3-0.7,4.6c0,1.7,0.2,3.2,0.7,4.6s1.1,2.7,2,3.8    c0.9,1.1,1.9,1.9,3.2,2.5c1.2,0.6,2.6,0.9,4.1,0.9c1.2,0,2.3-0.2,3.4-0.7c1-0.4,2-1,2.8-1.7s1.5-1.5,2.1-2.5    c0.6-0.9,0.9-1.9,1.2-2.9h0.4l-0.1,7.6h-0.4c-0.3-0.4-0.6-0.7-0.9-1.1c-0.3-0.3-0.5-0.5-0.6-0.5c0,0-0.3,0.1-0.6,0.4    c-0.4,0.2-0.9,0.5-1.6,0.8s-1.5,0.5-2.5,0.8c-1,0.2-2.1,0.3-3.4,0.3c-2.1,0-4.1-0.3-5.8-0.9c-1.7-0.6-3.2-1.5-4.4-2.6    c-1.2-1.1-2.1-2.4-2.8-4c-0.6-1.5-1-3.2-1-5.1c0-0.4,0-0.9,0.1-1.4s0.2-1.1,0.3-1.7c0.1-0.6,0.4-1.2,0.6-1.9c0.3-0.7,0.6-1.3,1-2    c0.5-0.8,1.1-1.5,1.8-2.2c0.7-0.7,1.5-1.3,2.5-1.9c1-0.5,2.1-1,3.3-1.3c1.2-0.3,2.6-0.5,4.1-0.5c1.4,0,2.6,0.1,3.6,0.4    c1,0.3,1.9,0.5,2.6,0.8s1.2,0.6,1.6,0.8c0.4,0.3,0.6,0.4,0.6,0.4s0.1-0.1,0.3-0.2c0.1-0.1,0.3-0.2,0.4-0.4    c0.1-0.1,0.3-0.3,0.5-0.5s0.3-0.4,0.4-0.6h0.4v7.7L309.6,66.4z"></path>
		<path class="st0" d="M336.1,83.2c-0.1,0-0.2-0.1-0.3-0.2c-0.1-0.1-0.2-0.2-0.4-0.4c-1.5-1.7-2.9-3.3-4.2-4.8    c-1.3-1.5-2.7-3.1-4.1-4.6c-0.6-0.7-1-1.1-1.2-1.2c-0.2-0.2-0.4-0.2-0.6-0.2s-0.3,0-0.4,0.1s-0.1,0.2-0.2,0.4c0,1.2,0,2.3,0,3.4    s0,2,0,2.7s0.1,1.3,0.1,1.9c0.1,0.6,0.2,1,0.4,1.3c0.2,0.2,0.4,0.4,0.7,0.6c0.3,0.2,0.6,0.3,0.9,0.4s0.6,0.2,0.9,0.2    c0.3,0.1,0.6,0.1,0.8,0.1v0.3h-11v-0.3c0.6-0.1,1.1-0.2,1.7-0.4c0.5-0.2,0.9-0.4,1.2-0.8c0.1-0.1,0.2-0.3,0.3-0.6    c0.1-0.3,0.1-0.6,0.2-0.9c0-0.4,0.1-0.7,0.1-1.1s0-0.8,0-1.2c0-0.3,0-0.8,0-1.3s0-1.1,0-1.8c0-0.7,0-1.3,0-2s0-1.4,0-2V64    c0-0.9,0-1.7-0.1-2.4s-0.2-1.3-0.5-1.6c-0.3-0.4-0.7-0.7-1.2-0.9s-1-0.3-1.6-0.4v-0.3h10.7v0.3c-0.4,0-0.9,0.1-1.3,0.2    c-0.4,0.1-0.8,0.3-1.1,0.5c-0.3,0.3-0.6,0.7-0.8,1.2c-0.2,0.5-0.3,1.3-0.4,2.2c0,0.5,0,1-0.1,1.5c0,0.5,0,1,0,1.6s0,1.3,0,2.2    c0,0.8,0,1.9,0,3.2c0.4-0.3,1-0.7,1.7-1.3c0.7-0.6,1.4-1.3,2.2-2c0.8-0.8,1.5-1.5,2.3-2.3s1.4-1.5,2-2.1c0.4-0.5,0.7-0.9,1-1.4    s0.5-0.9,0.5-1.3c0-0.7-0.2-1.1-0.7-1.4c-0.5-0.3-1-0.5-1.6-0.6v-0.3h9.2v0.3c-1.2,0.1-2.3,0.6-3.5,1.5s-2.4,1.9-3.6,3    c-0.5,0.4-1,0.9-1.5,1.4s-1,1-1.5,1.5s-1,1-1.4,1.5c-0.5,0.5-0.9,0.9-1.3,1.3c0.2,0.2,0.6,0.7,1.3,1.5c0.7,0.8,1.5,1.7,2.4,2.7    s1.9,2.1,2.9,3.3c1,1.2,2,2.3,3,3.4c0.2,0.3,0.5,0.5,0.8,0.8s0.6,0.5,0.9,0.7s0.5,0.4,0.7,0.6s0.3,0.3,0.4,0.3    c0.3,0.1,0.7,0.2,1.2,0.3c0.5,0.1,1.1,0.2,1.7,0.2v0.3H336.1z"></path>
		<path class="st0" d="M172.8,124.5h-22.1v-0.3c0.6-0.1,1.1-0.2,1.7-0.4c0.6-0.2,1-0.5,1.3-0.9c0.1-0.1,0.2-0.3,0.3-0.6    c0.1-0.3,0.1-0.6,0.2-0.9c0-0.3,0.1-0.7,0.1-1.1s0.1-0.8,0.1-1.1c0-0.3,0-0.8,0-1.3c0-0.6,0-1.2,0-1.8c0-0.7,0-1.3,0-2s0-1.4,0-2    v-6.7c0-0.4,0-0.8,0-1.2c0-0.4,0-0.8-0.1-1.2c0-0.4-0.1-0.7-0.2-0.9c-0.1-0.3-0.2-0.5-0.3-0.7c-0.3-0.4-0.8-0.7-1.3-0.9    c-0.5-0.2-1.1-0.3-1.7-0.4v-0.3h11v0.3c-0.3,0-0.7,0.1-1.1,0.2c-0.4,0.1-0.8,0.2-1.2,0.4c-0.4,0.2-0.7,0.5-0.9,0.9    c-0.3,0.4-0.4,0.9-0.4,1.5c0,0.8,0,1.5-0.1,2.2c0,0.7,0,1.3,0,2c0,0.6,0,1.3,0,2s0,1.5,0,2.3s0,1.5,0,2.1s0,1.2,0,1.8s0,1.2,0,1.8    c0,0.6,0,1.3,0,2.1c0,0.7,0.1,1.4,0.1,2.1s0.2,1.2,0.4,1.5c0.1,0.1,0.3,0.2,0.6,0.3c0.3,0.1,0.6,0.2,1,0.3    c0.4,0.1,0.8,0.1,1.3,0.2s0.9,0.1,1.4,0.1c0.2,0,0.5,0,0.9,0s0.8,0,1.3-0.1c0.5,0,1-0.1,1.5-0.2s1-0.2,1.3-0.3    c0.9-0.3,1.7-0.6,2.3-1s1.1-0.9,1.6-1.4c0.4-0.5,0.8-1.1,1.1-1.8c0.3-0.6,0.6-1.3,0.9-2l0.3,0.1L172.8,124.5z"></path>
		<path class="st0" d="M193.7,124.5v-0.3c0.1,0,0.2,0,0.5-0.1c0.3,0,0.5-0.1,0.8-0.2s0.5-0.3,0.8-0.5c0.2-0.2,0.3-0.5,0.3-0.8    c0-0.2-0.1-0.5-0.2-1c-0.1-0.5-0.3-1-0.5-1.7s-0.5-1.4-0.8-2.3c-0.3-0.8-0.6-1.7-1-2.6h-9.1c-0.3,0.9-0.7,1.7-1,2.5    s-0.6,1.6-1,2.4c-0.5,1.2-0.7,2.1-0.7,2.6c0,0.3,0.1,0.5,0.3,0.7s0.4,0.4,0.7,0.5s0.6,0.2,0.9,0.3c0.3,0.1,0.6,0.1,0.9,0.2v0.3    h-7.3v-0.4c0.6-0.1,1.1-0.2,1.5-0.5s0.7-0.4,0.7-0.5c0.2-0.2,0.4-0.5,0.8-1.1c0.4-0.6,0.8-1.5,1.3-2.6s1-2.3,1.6-3.7    c0.6-1.4,1.2-2.8,1.8-4.2c0.6-1.5,1.3-2.9,1.9-4.4c0.6-1.5,1.2-2.9,1.8-4.1l-0.3-0.8c0.4-0.2,0.8-0.4,1.1-0.7    c0.3-0.3,0.6-0.5,0.9-0.8c0.3-0.3,0.5-0.5,0.6-0.8c0.2-0.3,0.3-0.5,0.4-0.6h0.3c0.7,1.9,1.4,3.7,2,5.4c0.6,1.7,1.3,3.4,1.8,4.9    c0.6,1.6,1.2,3.1,1.7,4.6c0.6,1.5,1.1,2.9,1.7,4.4c0.3,0.7,0.5,1.3,0.7,1.8s0.5,1,0.7,1.6c0,0.1,0.1,0.3,0.3,0.5s0.4,0.5,0.6,0.7    c0.3,0.2,0.6,0.5,1,0.6c0.4,0.2,0.8,0.3,1.4,0.3v0.4C203.6,124.5,193.7,124.5,193.7,124.5z M189.2,103.6c-0.1,0.3-0.3,0.8-0.6,1.4    s-0.6,1.4-1,2.3s-0.8,2-1.3,3.1c-0.5,1.2-1,2.4-1.5,3.8h8.6c-0.4-1-0.8-2.1-1.2-3.1s-0.8-2-1.2-3s-0.7-1.8-1-2.6    C189.6,104.8,189.4,104.1,189.2,103.6z"></path>
		<path class="st0" d="M240.7,100.5c-0.4,0.3-0.6,0.4-0.7,0.5c-0.1,0.1-0.2,0.2-0.3,0.3c-0.1,0.2-0.3,0.4-0.5,0.7    c-0.2,0.3-0.4,0.7-0.6,1.1c-0.2,0.4-0.4,1-0.7,1.7c-0.4,1.1-0.8,2.4-1.3,3.7c-0.5,1.4-1,2.8-1.5,4.2c-0.5,1.4-1,2.9-1.5,4.3    c-0.5,1.5-1,2.8-1.4,4.1l-1.4,3.3h-0.3c-0.6-1.7-1.2-3.2-1.7-4.7s-1.1-3-1.5-4.4c-0.5-1.4-1-2.8-1.4-4.1c-0.5-1.3-0.9-2.6-1.4-3.9    c-0.4,1.1-0.8,2.2-1.2,3.3c-0.4,1.2-0.8,2.3-1.2,3.5s-0.8,2.4-1.2,3.5c-0.4,1.2-0.8,2.3-1.2,3.4l-1.5,3.4h-0.4    c-0.7-1.9-1.4-3.6-2-5.3c-0.6-1.7-1.2-3.3-1.8-4.8s-1.2-3-1.7-4.5c-0.6-1.5-1.1-2.9-1.7-4.3c-0.2-0.4-0.3-0.8-0.4-1.1    c-0.1-0.3-0.2-0.6-0.3-0.9s-0.2-0.5-0.3-0.8s-0.2-0.5-0.4-0.8c-0.1-0.1-0.2-0.3-0.3-0.5s-0.3-0.4-0.5-0.6s-0.5-0.4-0.8-0.5    s-0.7-0.2-1.2-0.3v-0.4h9.7v0.3c-0.1,0-0.3,0-0.6,0.1c-0.3,0-0.6,0.1-0.9,0.2c-0.3,0.1-0.6,0.3-0.8,0.5s-0.3,0.5-0.3,0.9    c0,0.2,0.1,0.7,0.4,1.4c0.2,0.7,0.6,1.7,0.9,2.7c0.4,1.1,0.8,2.2,1.3,3.5s0.9,2.5,1.4,3.7s0.9,2.4,1.3,3.4c0.4,1.1,0.7,1.9,1,2.6    c0.1-0.2,0.2-0.7,0.5-1.4c0.3-0.8,0.6-1.7,1-2.9c0.4-1.2,0.9-2.5,1.4-3.9c0.5-1.5,1-3,1.5-4.6c-0.3-0.9-0.7-1.7-0.9-2.4    c-0.3-0.7-0.6-1.4-0.9-2c-0.1-0.2-0.2-0.4-0.4-0.6c-0.1-0.2-0.4-0.4-0.6-0.6c-0.3-0.2-0.6-0.4-1-0.5s-0.9-0.2-1.4-0.2v-0.4h10.8    v0.3c-0.1,0-0.4,0.1-0.7,0.1c-0.4,0-0.7,0.1-1.1,0.3c-0.4,0.1-0.7,0.3-1,0.5s-0.4,0.5-0.4,0.9c0,0.1,0.1,0.6,0.4,1.4    c0.3,0.8,0.6,1.8,1,2.9s0.8,2.4,1.3,3.7s0.9,2.6,1.4,3.8c0.4,1.2,0.8,2.3,1.2,3.3s0.6,1.7,0.8,2.1c0.1-0.2,0.2-0.5,0.4-1    s0.4-1.1,0.7-1.9c0.3-0.7,0.6-1.6,0.9-2.5c0.3-0.9,0.6-1.9,0.9-2.8c0.3-1,0.6-1.9,0.9-2.9c0.3-1,0.6-1.8,0.8-2.7    c0.3-1.1,0.5-1.8,0.6-2.3c0-0.5,0.1-0.8,0.1-1.1c0-0.3-0.1-0.6-0.3-0.8c-0.2-0.2-0.5-0.4-0.8-0.5s-0.6-0.3-1-0.3    c-0.3-0.1-0.7-0.1-0.9-0.2v-0.3h7.6v0.3C241.6,100.1,241.1,100.3,240.7,100.5z"></path>
	</g>
	<g>
		<path class="st1" d="M133.9,131.7h-123V8.8h122.9L133.9,131.7L133.9,131.7z M12.1,130.6h120.7V9.9H12.1V130.6z"></path>
		<rect x="16" y="13.8" class="st2" width="112.9" height="112.9"></rect>
		<g>
			
				<rect x="18" y="71.9" transform="matrix(0.3798 -0.9251 0.9251 0.3798 -40.4056 85.1634)" class="st0" width="50.6" height="1.7"></rect>
			<g>
				<rect x="42.7" y="73.6" class="st0" width="19.9" height="1.2"></rect>
				<rect x="81.8" y="45.6" class="st0" width="1.9" height="50.6"></rect>
				<path class="st0" d="M76,95.3c-0.8-0.4-1.5-0.8-2.1-1.3s-1-1-1.3-1.5s-0.6-0.8-0.7-1c-0.6-1.3-1.1-2.4-1.6-3.4s-1-2.2-1.5-3.7      c-1.2-3-2.3-6.1-3.5-9.2s-2.4-6.3-3.6-9.7c-1.2-3.3-2.5-6.8-3.9-10.4c-1.4-3.6-2.8-7.4-4.3-11.4h-0.6c0.1,0.3-0.2,0.7-0.6,1.3      c-0.4,0.5-0.8,1.1-1.3,1.7c-0.5,0.6-1.1,1.1-1.8,1.7c-0.7,0.5-1.5,1-2.4,1.4l0.7,1.6c-1.2,2.7-2.4,5.6-3.7,8.7      c-1.3,3.1-2.6,6.2-3.9,9.3c-1.3,3.1-2.6,6-3.9,8.9c-1.3,2.9-2.4,5.5-3.4,7.7c-1.1,2.5-2.1,4.3-2.8,5.6c-0.8,1.3-1.3,2.1-1.7,2.4      c-0.1,0.2-0.7,0.6-1.6,1.1s-2,0.9-3.2,1v0.8h15.4v-0.7c-0.6-0.1-1.3-0.2-2-0.3c-0.7-0.1-1.4-0.3-2-0.6c-0.6-0.3-1.1-0.6-1.5-1      s-0.6-0.9-0.6-1.6c0-1.1,0.5-2.9,1.5-5.5c0.7-1.7,1.4-3.4,2-5c0.7-1.7,1.4-3.4,2.1-5.2l0,0l0.8-2.1l0,0c1.1-2.6,2.1-5.1,3-7.4      c1-2.4,1.9-4.6,2.7-6.6c0.8-1.9,1.5-3.6,2.1-4.9c0.6-1.4,1-2.3,1.3-3c0.4,1.1,1,2.4,1.6,4.1c0.7,1.7,1.4,3.5,2.2,5.5      s1.6,4.1,2.5,6.3c0.8,2.2,1.7,4.3,2.5,6.5l0,0l0.6,1.5l0,0c0.2,0.6,0.4,1.2,0.7,1.7l0.2,0.4l0,0c0.4,1.1,0.8,2.2,1.2,3.3      c0.6,1.7,1.2,3.3,1.7,4.7c0.5,1.4,0.9,2.6,1.1,3.6c0.3,1,0.4,1.7,0.4,2.1c0,0.7-0.2,1.2-0.7,1.7c-0.5,0.4-1,0.8-1.6,1      s-1.2,0.4-1.7,0.5C58.2,96,57.9,96,57.7,96v0.7h21.1v-0.9C77.8,95.9,76.9,95.7,76,95.3z"></path>
				<path class="st0" d="M119.4,52.2c-1.4-2.1-3.2-3.8-5.3-4.9c-2.2-1.2-4.5-2-7-2.3s-5.3-0.5-8.5-0.5c-0.9,0-2,0-3.3,0s-2.6,0-4,0      s-2.9,0-4.3,0s-2.8,0-4,0s-2.3,0-3.2,0c-0.9,0-1.4,0-1.7,0v0.7c1.3,0.2,2.5,0.4,3.7,0.7c1.1,0.3,2.1,0.8,2.8,1.6      c0.3,0.3,0.5,0.8,0.7,1.4c0.2,0.7,0.3,1.4,0.4,2.2s0.1,1.6,0.1,2.5s0,1.8,0,2.6v14.1c0,1.3,0,2.7,0,4.2c0,1.4,0,2.9,0,4.2      c0,1.4,0,2.6-0.1,3.8c0,1.2,0,2.1,0,2.8c0,0.8,0,1.6-0.1,2.4c0,0.8-0.1,1.6-0.2,2.3c-0.1,0.7-0.2,1.4-0.3,2      c-0.1,0.6-0.3,1-0.6,1.3c-0.6,0.8-1.5,1.4-2.6,1.7c-1.1,0.4-2.3,0.7-3.5,0.9v0.7h23.2v-0.7c-2-0.1-3.5-0.5-4.6-1.1      s-1.9-1.3-2.2-1.9c-0.5-0.7-0.7-1.6-0.8-2.8c0-1.1-0.1-2.4-0.1-4c0-0.8,0-1.6,0-2.3c0-0.7,0-1.5,0-2.3s0-1.8,0-2.8      c0-1.1,0-2.4,0-4c0,0,0,0,0.1,0v-1c0,0,0,0-0.1,0c0-0.4,0-1.4,0-3.2s0-3.8,0-6.1c0-2.3,0-4.7,0-7.1c0-2.4,0.1-4.5,0.1-6.2      c0-1.1,0.1-2,0.1-2.6s0.1-1.1,0.1-1.4c0-0.3,0.1-0.6,0.2-0.8s0.1-0.5,0.2-0.8c0.3,0,0.8-0.1,1.3-0.2c0.6-0.1,1.3-0.1,2.4-0.1      c1.4,0,2.8,0.1,4.1,0.3c1.3,0.2,2.5,0.6,3.7,1.1c2.3,1.1,4.2,2.8,5.6,4.9c1.4,2.2,2.1,4.7,2.1,7.5c0,3-0.8,5.8-2.5,8.2      c-1.6,2.4-4,4.2-7.1,5.2c-1.5,0.5-3.1,0.9-4.9,1c-0.3,0-0.7,0-1.1,0.1V75c1.3,0,2.6-0.1,4-0.2c1.6-0.1,3.1-0.3,4.7-0.5      c1.5-0.2,3-0.6,4.3-1.1s2.6-1.1,3.8-1.9c1.3-0.8,2.4-1.7,3.3-2.9c0.9-1.1,1.7-2.4,2.3-3.8c0.6-1.4,0.9-3.1,0.9-4.9      C121.5,56.8,120.8,54.3,119.4,52.2z"></path>
			</g>
		</g>
	</g>
</g>
</svg>
